<?xml version="1.0" ?><!DOCTYPE svg  PUBLIC '-//W3C//DTD SVG 1.1//EN'  'http://www.w3.org/Graphics/SVG/1.1/DTD/svg11.dtd'><svg enable-background="new 0 0 91 91" height="91px" id="Layer_1" version="1.1" viewBox="0 0 91 91" width="91px" xml:space="preserve" xmlns="http://www.w3.org/2000/svg" xmlns:xlink="http://www.w3.org/1999/xlink"><g><path d="M73.379,30.118c-0.017-0.045-0.035-0.084-0.055-0.127c-0.024-0.051-0.039-0.104-0.067-0.153   c-0.067-0.112-0.151-0.21-0.239-0.302c-0.008-0.008-0.014-0.018-0.021-0.025c-0.141-0.141-0.307-0.244-0.484-0.326   c-0.037-0.02-0.076-0.033-0.115-0.048c-0.189-0.071-0.389-0.122-0.597-0.122H55.926v-5.525c0-0.938-0.762-1.699-1.7-1.699H38.076   c-0.939,0-1.701,0.761-1.701,1.699v5.525H20.501c-0.202,0-0.396,0.048-0.579,0.115c-0.044,0.016-0.086,0.032-0.128,0.053   c-0.179,0.082-0.345,0.186-0.486,0.325c-0.003,0.001-0.006,0.003-0.009,0.005c-0.008,0.008-0.012,0.021-0.02,0.029   c-0.086,0.091-0.168,0.187-0.234,0.296c-0.031,0.052-0.047,0.108-0.071,0.161c-0.02,0.043-0.039,0.084-0.056,0.129   c-0.068,0.184-0.111,0.375-0.113,0.569c0,0.006-0.004,0.011-0.004,0.017v39.121c0,0.938,0.762,1.699,1.7,1.699h46.481   c3.594,0,6.518-2.924,6.518-6.518V30.716c0-0.006-0.004-0.012-0.004-0.018C73.494,30.501,73.45,30.306,73.379,30.118z    M39.775,25.189h12.75v3.825h-12.75V25.189z M68.974,32.416L62.277,45.05H51.898H40.404H30.023l-6.697-12.635L68.974,32.416z    M49.824,48.45c-0.645,1.385-2.049,2.348-3.674,2.348s-3.027-0.963-3.672-2.348H49.824z M70.1,65.017   c0,1.719-1.398,3.117-3.117,3.117H22.201V37.552l5.297,9.994c0.297,0.557,0.874,0.904,1.503,0.904h9.918   c0.773,3.286,3.713,5.747,7.231,5.747c3.52,0,6.46-2.461,7.233-5.747H63.3c0.63,0,1.207-0.348,1.503-0.904l5.297-9.994V65.017z"/></g></svg>